<?xml version="1.0" encoding="UTF-8"?>
<svg xmlns="http://www.w3.org/2000/svg" xmlns:xlink="http://www.w3.org/1999/xlink" width="100px" height="97px" viewBox="0 0 100 97" version="1.1">
<g id="surface1">
<path style=" stroke:none;fill-rule:evenodd;fill:rgb(87.843137%,13.72549%,30.588235%);fill-opacity:1;" d="M 57.953125 1.609375 C 57.269531 1.609375 56.636719 1.757812 56.050781 1.953125 C 57.296875 2.785156 57.980469 3.890625 58.320312 5.140625 C 58.34375 5.3125 58.394531 5.433594 58.417969 5.605469 C 58.441406 5.753906 58.46875 5.902344 58.46875 6.046875 C 58.566406 8.207031 57.90625 8.476562 57.441406 9.75 C 56.734375 11.394531 56.929688 13.160156 57.785156 14.582031 C 57.855469 14.753906 57.953125 14.949219 58.078125 15.121094 C 57.148438 8.917969 62.300781 7.984375 63.253906 6.046875 C 63.328125 4.355469 61.9375 3.226562 60.835938 2.441406 C 59.785156 1.804688 58.832031 1.609375 57.953125 1.609375 Z M 65.722656 3.007812 C 65.625 3.570312 65.695312 3.425781 65.671875 3.71875 C 65.648438 3.914062 65.648438 4.160156 65.625 4.355469 C 65.574219 4.550781 65.527344 4.75 65.453125 4.945312 C 65.402344 5.140625 65.332031 5.335938 65.257812 5.53125 C 65.160156 5.730469 65.085938 5.902344 64.988281 6.097656 C 64.914062 6.195312 64.867188 6.292969 64.792969 6.390625 C 64.746094 6.464844 64.695312 6.539062 64.648438 6.613281 C 64.523438 6.785156 64.402344 6.957031 64.28125 7.101562 C 64.132812 7.25 64.011719 7.421875 63.839844 7.542969 L 63.839844 7.570312 C 63.695312 7.691406 63.546875 7.839844 63.375 7.960938 C 62.863281 8.351562 62.277344 8.648438 61.742188 9.015625 C 61.570312 9.136719 61.398438 9.234375 61.25 9.382812 C 61.082031 9.507812 60.933594 9.628906 60.789062 9.777344 C 60.617188 9.921875 60.496094 10.070312 60.347656 10.242188 C 60.226562 10.390625 60.078125 10.5625 59.980469 10.730469 C 59.859375 10.902344 59.738281 11.074219 59.640625 11.246094 C 59.542969 11.445312 59.46875 11.613281 59.371094 11.8125 C 59.296875 12.007812 59.226562 12.179688 59.175781 12.375 C 59.101562 12.597656 59.054688 12.792969 59.003906 12.988281 C 58.980469 13.085938 58.980469 13.210938 58.957031 13.308594 C 58.933594 13.40625 58.933594 13.503906 58.90625 13.601562 C 58.90625 13.796875 58.882812 14.019531 58.882812 14.214844 C 58.882812 14.363281 58.882812 14.507812 58.90625 14.65625 C 58.90625 14.851562 58.933594 15.046875 58.980469 15.269531 C 59.003906 15.464844 59.054688 15.660156 59.101562 15.859375 C 59.175781 16.054688 59.226562 16.25 59.296875 16.445312 C 59.347656 16.570312 59.421875 16.691406 59.46875 16.789062 L 53.851562 14.605469 C 52.898438 14.335938 51.972656 14.09375 51.019531 13.871094 C 50.503906 13.75 49.992188 13.625 49.480469 13.503906 C 48.015625 13.210938 46.523438 12.988281 45.035156 12.839844 C 44.984375 12.839844 44.960938 12.816406 44.914062 12.816406 C 43.449219 12.667969 42.007812 12.597656 40.542969 12.597656 C 39.464844 12.597656 38.390625 12.644531 37.339844 12.71875 C 35.851562 12.816406 34.363281 13.011719 32.871094 13.257812 C 32.507812 13.308594 32.140625 13.378906 31.773438 13.453125 C 31.015625 13.601562 30.285156 13.773438 29.574219 13.945312 C 29.207031 14.042969 28.84375 14.140625 28.476562 14.238281 C 28.109375 14.386719 27.769531 14.558594 27.425781 14.707031 C 27.15625 14.828125 26.886719 14.949219 26.621094 15.074219 C 26.570312 15.097656 26.523438 15.097656 26.496094 15.121094 C 26.253906 15.246094 26.035156 15.34375 25.8125 15.464844 C 25.742188 15.488281 25.691406 15.515625 25.644531 15.539062 C 25.375 15.660156 25.105469 15.808594 24.886719 15.929688 C 24.714844 16.003906 24.542969 16.101562 24.398438 16.175781 C 24.324219 16.226562 24.226562 16.273438 24.175781 16.300781 C 23.957031 16.421875 23.738281 16.542969 23.542969 16.667969 C 23.324219 16.789062 23.128906 16.914062 22.957031 17.035156 C 22.785156 17.15625 22.613281 17.253906 22.46875 17.378906 C 22.445312 17.402344 22.417969 17.402344 22.394531 17.425781 C 22.25 17.523438 22.078125 17.648438 21.929688 17.769531 C 21.929688 17.769531 21.90625 17.796875 21.882812 17.820312 C 21.761719 17.917969 21.636719 18.015625 21.515625 18.113281 C 21.464844 18.136719 21.417969 18.1875 21.367188 18.210938 C 21.246094 18.308594 21.125 18.433594 21.003906 18.53125 C 20.976562 18.578125 20.929688 18.605469 20.90625 18.628906 C 20.757812 18.777344 20.613281 18.898438 20.464844 19.046875 C 20.441406 19.046875 20.441406 19.070312 20.417969 19.09375 C 20.269531 19.21875 20.125 19.363281 19.976562 19.511719 C 19.953125 19.535156 19.953125 19.5625 19.929688 19.5625 C 19.804688 19.683594 19.683594 19.804688 19.5625 19.953125 C 19.511719 20.003906 19.441406 20.050781 19.390625 20.101562 C 19.269531 20.246094 19.121094 20.394531 18.976562 20.542969 C 18.949219 20.589844 18.902344 20.617188 18.878906 20.664062 C 18.683594 20.859375 18.511719 21.058594 18.316406 21.253906 C 18.292969 21.277344 18.265625 21.300781 18.242188 21.328125 C 17.851562 21.742188 17.4375 22.160156 16.996094 22.527344 C 16.558594 22.921875 16.09375 23.289062 15.628906 23.605469 C 15.140625 23.949219 14.675781 24.246094 14.164062 24.539062 C 13.675781 24.808594 13.164062 25.054688 12.625 25.273438 C 12.113281 25.496094 11.574219 25.691406 11.039062 25.863281 C 10.011719 26.085938 8.960938 26.5 8.058594 26.574219 C 7.863281 26.574219 7.644531 26.625 7.449219 26.648438 C 7.226562 26.699219 7.03125 26.746094 6.835938 26.796875 C 6.640625 26.867188 6.445312 26.941406 6.25 27.015625 C 6.054688 27.089844 5.859375 27.1875 5.664062 27.285156 C 5.492188 27.410156 5.296875 27.507812 5.128906 27.628906 C 4.957031 27.75 4.785156 27.898438 4.640625 28.046875 C 4.46875 28.167969 4.296875 28.339844 4.152344 28.488281 C 4.003906 28.660156 3.859375 28.804688 3.734375 28.976562 C 3.613281 29.175781 3.46875 29.347656 3.367188 29.542969 C 3.246094 29.714844 3.125 29.910156 3.027344 30.105469 C 2.929688 30.328125 2.832031 30.523438 2.757812 30.742188 C 2.683594 30.941406 2.613281 31.160156 2.539062 31.382812 C 2.488281 31.578125 2.441406 31.773438 2.417969 31.96875 C 2.417969 31.996094 2.390625 32.019531 2.390625 32.042969 C 2.34375 32.265625 2.34375 32.558594 2.320312 32.707031 C 2.292969 32.878906 2.269531 33.023438 2.269531 33.195312 C 2.269531 33.292969 2.269531 33.417969 2.292969 33.515625 C 2.320312 33.6875 2.34375 33.832031 2.390625 33.980469 C 2.441406 34.128906 2.488281 34.273438 2.5625 34.421875 L 2.5625 34.445312 C 2.636719 34.59375 2.734375 34.742188 2.832031 34.886719 C 2.929688 35.035156 3.027344 35.183594 3.148438 35.328125 C 3.273438 35.453125 3.417969 35.601562 3.566406 35.722656 C 3.710938 35.871094 3.859375 35.992188 4.027344 36.113281 C 4.613281 36.628906 4.761719 36.800781 5.519531 37.195312 C 5.640625 37.265625 5.761719 37.316406 5.910156 37.390625 C 5.933594 37.390625 5.957031 37.414062 5.984375 37.414062 C 5.984375 37.464844 5.984375 37.488281 6.007812 37.539062 C 6.03125 37.734375 6.082031 37.929688 6.128906 38.125 C 6.179688 38.347656 6.25 38.542969 6.324219 38.714844 C 6.398438 38.863281 6.445312 39.007812 6.519531 39.15625 C 6.542969 39.203125 6.570312 39.253906 6.59375 39.277344 C 6.691406 39.476562 6.789062 39.644531 6.886719 39.816406 C 7.007812 39.988281 7.128906 40.160156 7.253906 40.332031 C 7.375 40.480469 7.519531 40.652344 7.667969 40.800781 C 7.8125 40.945312 7.960938 41.070312 8.132812 41.214844 C 8.132812 41.214844 8.15625 41.242188 8.179688 41.242188 C 8.328125 41.363281 8.472656 41.484375 8.621094 41.582031 C 8.792969 41.707031 8.960938 41.804688 9.15625 41.902344 C 9.328125 42 9.523438 42.097656 9.71875 42.171875 C 9.867188 42.246094 10.035156 42.296875 10.207031 42.34375 C 10.230469 42.367188 10.257812 42.367188 10.304688 42.394531 C 10.402344 42.417969 10.523438 42.441406 10.621094 42.464844 C 10.550781 43.789062 10.523438 45.042969 10.71875 45.484375 C 10.941406 45.972656 12.015625 44.476562 13.089844 42.761719 C 12.941406 44.453125 12.84375 46.441406 13.089844 47.027344 C 13.359375 47.640625 14.824219 45.726562 16.09375 43.621094 C 33.410156 39.597656 49.210938 51.613281 50.871094 68.585938 C 50.554688 65.9375 47.304688 64.464844 45.816406 64.832031 C 45.085938 66.648438 43.839844 68.976562 41.835938 70.425781 C 42.007812 68.804688 41.933594 67.136719 41.589844 65.519531 C 41.054688 67.777344 40.003906 69.882812 38.5625 71.699219 C 36.242188 71.871094 33.921875 70.742188 32.703125 69.050781 C 32.605469 68.976562 32.578125 68.832031 32.507812 68.730469 C 32.433594 68.558594 32.359375 68.390625 32.3125 68.21875 C 32.238281 68.046875 32.1875 67.875 32.164062 67.703125 C 32.140625 67.53125 32.140625 67.359375 32.140625 67.164062 C 32.140625 67.039062 32.140625 66.917969 32.140625 66.792969 C 32.164062 66.621094 32.214844 66.453125 32.261719 66.28125 C 32.3125 66.109375 32.359375 65.9375 32.433594 65.765625 C 32.53125 65.59375 32.605469 65.421875 32.726562 65.25 C 33.140625 64.074219 33.140625 63.117188 32.382812 62.550781 C 32.238281 62.453125 32.089844 62.378906 31.917969 62.308594 C 31.820312 62.28125 31.699219 62.234375 31.601562 62.207031 C 31.527344 62.183594 31.480469 62.160156 31.40625 62.136719 C 31.234375 62.085938 31.066406 62.035156 30.894531 62.011719 C 30.722656 61.964844 30.550781 61.9375 30.382812 61.9375 C 30.210938 61.914062 30.015625 61.890625 29.84375 61.890625 C 29.722656 61.890625 29.601562 61.914062 29.476562 61.914062 C 29.28125 61.914062 29.109375 61.9375 28.941406 61.988281 C 28.769531 62.011719 28.597656 62.035156 28.425781 62.085938 C 28.257812 62.136719 28.085938 62.183594 27.914062 62.257812 C 27.742188 62.332031 27.597656 62.40625 27.425781 62.476562 C 27.28125 62.550781 27.132812 62.648438 26.960938 62.722656 C 21.269531 66.453125 24.667969 75.183594 28.550781 77.707031 C 27.085938 77.976562 25.59375 78.296875 25.179688 78.617188 C 25.15625 78.640625 25.128906 78.664062 25.128906 78.664062 C 26.179688 79.300781 27.28125 79.839844 28.425781 80.308594 C 29.992188 80.824219 31.652344 81.289062 32.382812 81.484375 L 32.382812 81.507812 C 34.410156 81.925781 36.460938 82.074219 38.539062 81.949219 C 49.359375 81.191406 58.222656 72.925781 59.835938 62.035156 C 59.882812 62.257812 59.933594 62.453125 59.980469 62.675781 C 60.054688 63.117188 60.152344 63.582031 60.203125 64.046875 L 60.203125 64.074219 C 60.25 64.292969 60.273438 64.515625 60.300781 64.710938 L 60.300781 64.808594 C 60.324219 65.027344 60.347656 65.25 60.347656 65.445312 C 60.371094 65.714844 60.398438 65.984375 60.398438 66.253906 L 60.398438 66.648438 C 60.398438 66.769531 60.421875 66.917969 60.421875 67.039062 C 60.421875 67.1875 60.398438 67.335938 60.398438 67.480469 L 60.398438 67.824219 C 60.398438 67.996094 60.371094 68.144531 60.371094 68.316406 C 60.371094 68.414062 60.371094 68.511719 60.347656 68.632812 C 60.347656 68.804688 60.324219 68.976562 60.324219 69.171875 C 60.300781 69.246094 60.300781 69.320312 60.300781 69.394531 C 60.273438 69.589844 60.25 69.761719 60.226562 69.957031 C 60.226562 70.03125 60.226562 70.105469 60.203125 70.179688 C 60.175781 70.425781 60.128906 70.644531 60.105469 70.890625 L 60.105469 70.941406 C 60.054688 71.160156 60.007812 71.40625 59.957031 71.625 L 59.957031 71.699219 C 59.910156 71.921875 59.859375 72.140625 59.8125 72.363281 C 59.8125 72.386719 59.785156 72.433594 59.785156 72.460938 C 59.738281 72.679688 59.6875 72.902344 59.617188 73.121094 L 59.617188 73.195312 C 59.542969 73.441406 59.46875 73.660156 59.421875 73.882812 C 59.394531 73.90625 59.394531 73.929688 59.394531 73.929688 C 59.324219 74.175781 59.25 74.421875 59.175781 74.667969 C 59.078125 74.914062 59.003906 75.132812 58.90625 75.378906 C 58.808594 75.625 58.734375 75.867188 58.636719 76.089844 C 58.539062 76.335938 58.441406 76.554688 58.34375 76.800781 L 58.320312 76.800781 C 58.222656 77.023438 58.125 77.265625 58.003906 77.488281 C 57.980469 77.5625 57.953125 77.609375 57.929688 77.660156 C 57.90625 77.683594 57.90625 77.707031 57.882812 77.734375 C 56.292969 80.945312 53.949219 83.765625 51.019531 85.972656 C 50.824219 86.09375 50.628906 86.242188 50.433594 86.390625 C 50.382812 86.4375 50.308594 86.464844 50.261719 86.511719 C 50.089844 86.636719 49.917969 86.757812 49.722656 86.878906 L 49.796875 87.027344 L 49.820312 87.027344 C 50.164062 86.976562 50.503906 86.929688 50.847656 86.878906 L 50.871094 86.878906 C 51.507812 86.78125 52.140625 86.660156 52.777344 86.535156 C 52.949219 86.511719 53.144531 86.464844 53.3125 86.414062 C 53.4375 86.390625 53.535156 86.367188 53.65625 86.339844 C 53.828125 86.316406 54 86.265625 54.167969 86.242188 C 54.316406 86.195312 54.460938 86.167969 54.609375 86.121094 C 57.050781 85.53125 59.421875 84.722656 61.691406 83.765625 C 57.808594 89.085938 52.605469 93.378906 46.523438 96.199219 C 49.332031 96.003906 52.140625 95.539062 54.851562 94.753906 C 64.695312 91.835938 72.976562 85.1875 77.933594 76.238281 C 76.929688 81.902344 74.683594 87.296875 71.363281 92.003906 C 73.730469 90.4375 75.90625 88.621094 77.882812 86.5625 C 83.355469 80.824219 86.945312 73.539062 88.167969 65.714844 C 88.996094 69.589844 89.242188 73.589844 88.875 77.535156 C 106.507812 52.839844 90.339844 27.238281 83.574219 20.492188 C 83.550781 20.445312 83.527344 20.417969 83.527344 20.371094 C 83.5 20.394531 83.5 20.394531 83.5 20.417969 C 83.5 20.394531 83.5 20.394531 83.476562 20.371094 C 83.476562 20.664062 83.453125 20.960938 83.429688 21.253906 C 83.355469 21.816406 83.28125 22.355469 83.183594 22.894531 C 83.0625 23.4375 82.914062 23.976562 82.769531 24.515625 C 82.597656 25.03125 82.402344 25.570312 82.183594 26.085938 C 81.960938 26.574219 81.71875 27.089844 81.449219 27.582031 C 81.179688 28.046875 80.886719 28.535156 80.570312 28.976562 C 80.253906 29.445312 79.910156 29.886719 79.570312 30.304688 C 79.203125 30.746094 78.8125 31.136719 78.421875 31.527344 C 78.175781 31.75 77.957031 31.945312 77.714844 32.140625 C 77.519531 32.3125 77.347656 32.460938 77.152344 32.632812 C 76.710938 32.976562 76.273438 33.292969 75.785156 33.589844 C 75.320312 33.882812 74.832031 34.175781 74.34375 34.421875 C 73.828125 34.667969 73.316406 34.890625 72.804688 35.109375 C 72.292969 35.304688 71.753906 35.476562 71.214844 35.625 C 70.679688 35.773438 70.117188 35.894531 69.582031 35.992188 C 69.019531 36.089844 68.457031 36.140625 67.917969 36.1875 C 67.527344 36.214844 67.136719 36.238281 66.746094 36.238281 C 66.183594 36.238281 65.625 36.1875 65.085938 36.140625 C 64.523438 36.089844 63.960938 36.015625 63.425781 35.894531 C 62.863281 35.796875 62.328125 35.648438 61.789062 35.476562 L 61.765625 35.476562 C 62.300781 35.429688 62.839844 35.378906 63.375 35.28125 C 63.9375 35.183594 64.476562 35.058594 65.011719 34.914062 C 65.550781 34.765625 66.085938 34.59375 66.601562 34.398438 C 67.136719 34.203125 67.652344 33.957031 68.140625 33.710938 C 68.652344 33.464844 69.117188 33.195312 69.605469 32.902344 C 70.070312 32.582031 70.53125 32.265625 70.972656 31.921875 C 71.410156 31.578125 71.828125 31.210938 72.21875 30.816406 C 72.632812 30.449219 73 30.03125 73.367188 29.617188 C 73.730469 29.175781 74.074219 28.734375 74.390625 28.292969 C 74.441406 28.21875 74.488281 28.121094 74.539062 28.046875 C 74.78125 27.652344 75.027344 27.261719 75.246094 26.871094 C 75.515625 26.378906 75.757812 25.886719 75.980469 25.375 C 76.199219 24.859375 76.394531 24.34375 76.566406 23.804688 C 76.734375 23.289062 76.859375 22.75 76.980469 22.210938 C 77.078125 21.644531 77.175781 21.105469 77.222656 20.566406 C 77.273438 20.003906 77.320312 19.4375 77.320312 18.898438 C 77.320312 18.507812 77.296875 18.113281 77.273438 17.722656 C 77.226562 17.15625 77.152344 16.617188 77.078125 16.078125 C 76.980469 15.515625 76.859375 14.976562 76.710938 14.433594 C 76.539062 13.921875 76.371094 13.382812 76.175781 12.867188 C 75.980469 12.351562 75.734375 11.835938 75.492188 11.34375 C 75.222656 10.855469 74.953125 10.363281 74.660156 9.898438 C 74.34375 9.433594 74.023438 8.992188 73.683594 8.550781 C 73.316406 8.132812 72.949219 7.714844 72.558594 7.300781 C 72.363281 7.101562 72.144531 6.882812 71.925781 6.6875 C 70.824219 5.828125 69.679688 5.019531 68.53125 4.28125 C 68.359375 4.183594 68.210938 4.109375 68.042969 4.039062 C 67.234375 3.523438 66.476562 3.253906 65.722656 3.007812 Z M 65.722656 3.007812 "/>
</g>
</svg>
