<?xml version="1.0" encoding="UTF-8"?>
<svg xmlns="http://www.w3.org/2000/svg" xmlns:xlink="http://www.w3.org/1999/xlink" width="250px" height="63px" viewBox="0 0 249 63" version="1.1">
<g id="surface1">
<path style=" stroke:none;fill-rule:nonzero;fill:rgb(0%,40.784314%,29.019608%);fill-opacity:1;" d="M 18.601562 6.492188 C 16.164062 3.589844 14.066406 0.644531 13.636719 0.0351562 C 13.589844 -0.0117188 13.523438 -0.0117188 13.476562 0.0351562 C 13.050781 0.644531 10.949219 3.589844 8.515625 6.492188 C -12.40625 33.25 11.808594 51.308594 11.808594 51.308594 L 12.011719 51.445312 C 12.191406 54.230469 12.644531 58.242188 12.644531 58.242188 L 14.449219 58.242188 C 14.449219 58.242188 14.898438 54.253906 15.082031 51.445312 L 15.285156 51.285156 C 15.304688 51.308594 39.519531 33.25 18.601562 6.492188 Z M 13.546875 50.921875 C 13.546875 50.921875 12.464844 49.992188 12.167969 49.519531 L 12.167969 49.472656 L 13.476562 20.335938 C 13.476562 20.246094 13.613281 20.246094 13.613281 20.335938 L 14.921875 49.472656 L 14.921875 49.519531 C 14.628906 49.992188 13.546875 50.921875 13.546875 50.921875 Z M 13.546875 50.921875 "/>
<path style=" stroke:none;fill-rule:nonzero;fill:rgb(0%,40.784314%,29.019608%);fill-opacity:1;" d="M 58.859375 44.777344 L 48.769531 20.238281 L 48.75 20.167969 L 40.898438 20.167969 L 40.898438 21.820312 L 42.164062 21.820312 C 42.550781 21.820312 42.910156 21.976562 43.183594 22.246094 C 43.453125 22.519531 43.589844 22.878906 43.589844 23.265625 L 43.363281 47.964844 C 43.363281 48.730469 42.730469 49.363281 41.960938 49.386719 L 40.671875 49.410156 L 40.671875 51.035156 L 48.320312 51.035156 L 48.320312 49.410156 L 47.527344 49.386719 C 46.757812 49.363281 46.125 48.730469 46.125 47.964844 L 46.125 24.6875 L 57.117188 51.035156 C 57.277344 51.421875 57.640625 51.667969 58.046875 51.667969 C 58.453125 51.667969 58.816406 51.421875 58.972656 51.035156 L 69.71875 25.277344 L 69.878906 47.964844 C 69.878906 48.753906 69.246094 49.386719 68.453125 49.410156 L 67.640625 49.410156 L 67.640625 51.035156 L 76.597656 51.035156 L 76.597656 49.410156 L 75.375 49.410156 C 74.605469 49.410156 73.972656 48.753906 73.949219 47.984375 L 73.882812 23.289062 C 73.882812 22.496094 74.515625 21.863281 75.285156 21.839844 L 76.597656 21.820312 L 76.597656 20.167969 L 68.949219 20.167969 Z M 58.859375 44.777344 "/>
<path style=" stroke:none;fill-rule:nonzero;fill:rgb(0%,40.784314%,29.019608%);fill-opacity:1;" d="M 129.214844 48.980469 C 128.964844 48.730469 128.828125 48.394531 128.828125 47.988281 L 128.828125 35.890625 C 128.828125 33.585938 128.148438 31.78125 126.789062 30.496094 C 125.449219 29.207031 123.589844 28.554688 121.277344 28.554688 C 118.03125 28.554688 115.46875 29.863281 113.679688 32.4375 C 113.65625 32.480469 113.585938 32.503906 113.519531 32.503906 C 113.449219 32.503906 113.40625 32.457031 113.40625 32.390625 L 112.566406 29.164062 L 111.160156 29.164062 L 107.554688 31.21875 L 107.554688 32.347656 L 108.484375 32.347656 C 108.914062 32.347656 109.277344 32.457031 109.527344 32.683594 C 109.777344 32.910156 109.914062 33.25 109.914062 33.722656 L 109.914062 47.964844 C 109.914062 48.371094 109.777344 48.710938 109.527344 48.957031 C 109.277344 49.207031 108.9375 49.339844 108.527344 49.339844 L 107.621094 49.339844 L 107.621094 50.988281 L 115.921875 50.988281 L 115.921875 49.339844 L 115.015625 49.339844 C 114.609375 49.339844 114.265625 49.207031 114.019531 48.957031 C 113.769531 48.710938 113.632812 48.371094 113.632812 47.964844 L 113.632812 38.53125 C 113.632812 37.332031 113.90625 36.136719 114.402344 34.964844 C 114.925781 33.8125 115.695312 32.84375 116.71875 32.097656 C 117.738281 31.351562 118.960938 30.992188 120.367188 30.992188 C 121.957031 30.992188 123.160156 31.488281 123.90625 32.480469 C 124.65625 33.472656 125.042969 34.761719 125.042969 36.296875 L 125.042969 47.941406 C 125.042969 48.347656 124.90625 48.6875 124.65625 48.933594 C 124.40625 49.183594 124.066406 49.320312 123.65625 49.320312 L 122.75 49.320312 L 122.75 50.964844 L 131.050781 50.964844 L 131.050781 49.320312 L 130.144531 49.320312 C 129.804688 49.363281 129.488281 49.230469 129.214844 48.980469 Z M 129.214844 48.980469 "/>
<path style=" stroke:none;fill-rule:nonzero;fill:rgb(0%,40.784314%,29.019608%);fill-opacity:1;" d="M 205.0625 22.03125 C 202.769531 20.804688 200.203125 20.167969 197.4375 20.167969 L 186.636719 20.167969 L 186.636719 21.824219 L 187.695312 21.824219 C 188.097656 21.824219 188.460938 21.984375 188.820312 22.347656 C 189.15625 22.6875 189.335938 23.074219 189.335938 23.484375 L 189.335938 47.902344 C 189.335938 48.3125 189.15625 48.695312 188.820312 49.039062 C 188.480469 49.378906 188.097656 49.558594 187.695312 49.558594 L 186.636719 49.558594 L 186.636719 51.214844 L 197.4375 51.214844 C 200.203125 51.214844 202.769531 50.582031 205.0625 49.355469 C 207.355469 48.128906 209.226562 46.3125 210.574219 44 C 211.925781 41.683594 212.621094 38.890625 212.621094 35.714844 C 212.621094 32.539062 211.925781 29.769531 210.574219 27.429688 C 209.203125 25.070312 207.355469 23.253906 205.0625 22.03125 Z M 208.28125 35.667969 C 208.28125 38.574219 207.761719 41.027344 206.75 43 C 205.738281 44.976562 204.386719 46.449219 202.722656 47.402344 C 201.058594 48.355469 199.214844 48.832031 197.234375 48.832031 L 195.050781 48.832031 C 194.644531 48.832031 194.285156 48.675781 193.925781 48.3125 C 193.589844 47.96875 193.410156 47.585938 193.410156 47.175781 L 193.410156 24.140625 C 193.410156 23.730469 193.566406 23.371094 193.925781 23.007812 C 194.261719 22.664062 194.644531 22.484375 195.050781 22.484375 L 197.234375 22.484375 C 199.214844 22.484375 201.058594 22.960938 202.722656 23.914062 C 204.386719 24.867188 205.738281 26.34375 206.75 28.316406 C 207.761719 30.289062 208.28125 32.765625 208.28125 35.667969 Z M 208.28125 35.667969 "/>
<path style=" stroke:none;fill-rule:nonzero;fill:rgb(0%,40.784314%,29.019608%);fill-opacity:1;" d="M 238.148438 37.328125 C 237.148438 36.167969 235.222656 35.191406 232.957031 34.671875 C 236.085938 33.105469 237.691406 30.902344 237.691406 28.066406 C 237.691406 26.523438 237.285156 25.140625 236.46875 23.960938 C 235.652344 22.777344 234.496094 21.824219 233.023438 21.167969 C 231.546875 20.507812 229.824219 20.167969 227.875 20.167969 L 215.648438 20.167969 L 215.648438 21.824219 L 216.625 21.824219 C 217.03125 21.824219 217.394531 21.984375 217.757812 22.347656 C 218.097656 22.6875 218.28125 23.074219 218.28125 23.484375 L 218.28125 47.902344 C 218.28125 48.3125 218.097656 48.695312 217.757812 49.039062 C 217.417969 49.378906 217.03125 49.558594 216.625 49.558594 L 215.558594 49.558594 L 215.558594 51.214844 L 228.828125 51.214844 C 230.84375 51.214844 232.726562 50.875 234.429688 50.195312 C 236.128906 49.515625 237.488281 48.515625 238.464844 47.199219 C 239.460938 45.882812 239.960938 44.269531 239.960938 42.410156 C 239.9375 40.414062 239.347656 38.710938 238.148438 37.328125 Z M 222.929688 48.332031 C 222.589844 47.992188 222.40625 47.605469 222.40625 47.199219 L 222.40625 36.238281 L 228.714844 36.238281 C 230.933594 36.238281 232.636719 36.804688 233.816406 37.9375 C 234.996094 39.074219 235.585938 40.550781 235.585938 42.363281 C 235.585938 43.453125 235.3125 44.519531 234.816406 45.496094 C 234.292969 46.496094 233.519531 47.289062 232.476562 47.902344 C 231.457031 48.515625 230.1875 48.832031 228.714844 48.832031 L 224.0625 48.832031 C 223.65625 48.855469 223.292969 48.675781 222.929688 48.332031 Z M 222.429688 33.898438 L 222.429688 24.164062 C 222.429688 23.753906 222.589844 23.390625 222.953125 23.027344 C 223.292969 22.6875 223.679688 22.507812 224.085938 22.507812 L 227.082031 22.507812 C 229.234375 22.507812 230.820312 23.050781 231.820312 24.09375 C 232.816406 25.160156 233.316406 26.523438 233.316406 28.203125 C 233.316406 29.929688 232.839844 31.3125 231.910156 32.355469 C 230.980469 33.378906 229.574219 33.898438 227.714844 33.898438 Z M 222.429688 33.898438 "/>
<path style=" stroke:none;fill-rule:nonzero;fill:rgb(0%,40.784314%,29.019608%);fill-opacity:1;" d="M 97.613281 30 C 95.878906 29.050781 93.941406 28.554688 91.851562 28.554688 C 89.757812 28.554688 87.796875 29.027344 86.089844 30 C 84.355469 30.953125 82.980469 32.332031 81.96875 34.074219 C 80.957031 35.8125 80.4375 37.851562 80.4375 40.113281 C 80.4375 42.375 80.957031 44.410156 81.96875 46.152344 C 82.980469 47.890625 84.355469 49.273438 86.089844 50.222656 C 87.820312 51.171875 89.757812 51.667969 91.851562 51.667969 C 93.941406 51.667969 95.902344 51.195312 97.613281 50.222656 C 99.34375 49.273438 100.71875 47.890625 101.730469 46.152344 C 102.742188 44.410156 103.261719 42.375 103.261719 40.113281 C 103.261719 37.851562 102.742188 35.8125 101.730469 34.074219 C 100.71875 32.332031 99.34375 30.972656 97.613281 30 Z M 99.277344 40.113281 C 99.277344 42.894531 98.601562 45.15625 97.25 46.785156 C 95.921875 48.410156 94.101562 49.25 91.851562 49.25 C 89.597656 49.25 87.777344 48.410156 86.449219 46.785156 C 85.097656 45.15625 84.421875 42.894531 84.421875 40.113281 C 84.421875 37.328125 85.097656 35.066406 86.449219 33.4375 C 87.777344 31.8125 89.597656 30.972656 91.851562 30.972656 C 94.101562 30.972656 95.921875 31.8125 97.25 33.4375 C 98.601562 35.089844 99.277344 37.328125 99.277344 40.113281 Z M 99.277344 40.113281 "/>
<path style=" stroke:none;fill-rule:nonzero;fill:rgb(0%,40.784314%,29.019608%);fill-opacity:1;" d="M 177.371094 30 C 175.640625 29.050781 173.703125 28.554688 171.609375 28.554688 C 169.519531 28.554688 167.558594 29.027344 165.847656 30 C 164.117188 30.953125 162.742188 32.332031 161.730469 34.074219 C 160.71875 35.8125 160.199219 37.851562 160.199219 40.113281 C 160.199219 42.375 160.71875 44.410156 161.730469 46.152344 C 162.742188 47.890625 164.117188 49.273438 165.847656 50.222656 C 167.582031 51.171875 169.519531 51.667969 171.609375 51.667969 C 173.703125 51.667969 175.664062 51.195312 177.371094 50.222656 C 179.105469 49.273438 180.480469 47.890625 181.492188 46.152344 C 182.503906 44.410156 183.023438 42.375 183.023438 40.113281 C 183.023438 37.851562 182.503906 35.8125 181.492188 34.074219 C 180.480469 32.332031 179.082031 30.972656 177.371094 30 Z M 179.039062 40.113281 C 179.039062 42.894531 178.363281 45.15625 177.011719 46.785156 C 175.683594 48.410156 173.863281 49.25 171.609375 49.25 C 169.359375 49.25 167.539062 48.410156 166.210938 46.785156 C 164.859375 45.15625 164.183594 42.894531 164.183594 40.113281 C 164.183594 37.308594 164.859375 35.066406 166.210938 33.4375 C 167.539062 31.8125 169.359375 30.972656 171.609375 30.972656 C 173.863281 30.972656 175.683594 31.8125 177.011719 33.4375 C 178.339844 35.089844 179.039062 37.328125 179.039062 40.113281 Z M 179.039062 40.113281 "/>
<path style=" stroke:none;fill-rule:nonzero;fill:rgb(0%,40.784314%,29.019608%);fill-opacity:1;" d="M 145.207031 28.554688 C 143.394531 28.554688 141.738281 28.941406 140.242188 29.710938 C 138.746094 30.484375 137.566406 31.53125 136.730469 32.871094 C 135.890625 34.1875 135.460938 35.664062 135.460938 37.234375 C 135.460938 38.640625 135.777344 39.9375 136.433594 41.097656 C 137.070312 42.210938 137.929688 43.140625 139.019531 43.914062 L 135.777344 48.320312 C 135.367188 48.867188 135.324219 49.59375 135.617188 50.183594 C 135.9375 50.796875 136.523438 51.164062 137.207031 51.164062 L 138.132812 51.164062 C 137.226562 51.777344 136.503906 52.503906 136.003906 53.367188 C 135.414062 54.34375 135.121094 55.367188 135.121094 56.410156 C 135.121094 58.363281 135.980469 59.976562 137.679688 61.183594 C 139.359375 62.386719 141.714844 63 144.683594 63 C 146.746094 63 148.71875 62.660156 150.511719 62 C 152.324219 61.339844 153.796875 60.363281 154.882812 59.09375 C 155.996094 57.820312 156.5625 56.273438 156.5625 54.503906 C 156.5625 52.640625 155.882812 51.320312 154.296875 50.046875 C 152.933594 48.980469 150.804688 48.414062 148.152344 48.414062 L 139.085938 48.414062 C 139.0625 48.414062 139.039062 48.390625 139.039062 48.390625 C 139.039062 48.390625 139.019531 48.34375 139.039062 48.320312 L 141.398438 45.140625 C 142.03125 45.4375 142.621094 45.617188 143.144531 45.730469 C 143.6875 45.84375 144.300781 45.890625 144.980469 45.890625 C 146.882812 45.890625 148.605469 45.503906 150.101562 44.730469 C 151.597656 43.960938 152.800781 42.914062 153.660156 41.574219 C 154.523438 40.253906 154.953125 38.777344 154.953125 37.210938 C 154.953125 35.53125 154.136719 32.460938 151.914062 30.894531 C 151.914062 30.871094 151.9375 30.871094 151.9375 30.871094 L 156.8125 31.417969 L 156.8125 29.167969 L 149.015625 29.167969 C 147.789062 28.757812 146.519531 28.554688 145.207031 28.554688 Z M 147.925781 42.753906 C 147.066406 43.210938 146.136719 43.460938 145.207031 43.460938 C 143.6875 43.460938 142.351562 42.914062 141.21875 41.847656 C 140.082031 40.777344 139.515625 39.210938 139.515625 37.210938 C 139.515625 35.210938 140.082031 33.644531 141.21875 32.574219 C 142.351562 31.507812 143.6875 30.960938 145.207031 30.960938 C 146.160156 30.960938 147.066406 31.191406 147.925781 31.667969 C 148.789062 32.121094 149.488281 32.824219 150.058594 33.757812 C 150.601562 34.6875 150.894531 35.847656 150.894531 37.210938 C 150.894531 38.597656 150.625 39.753906 150.058594 40.664062 C 149.511719 41.597656 148.789062 42.300781 147.925781 42.753906 Z M 141.785156 51.140625 L 147.925781 51.140625 C 149.625 51.140625 150.714844 51.480469 151.4375 52.207031 C 152.164062 52.933594 152.527344 53.910156 152.527344 55.046875 C 152.527344 56.707031 151.871094 58.070312 150.554688 59.09375 C 149.242188 60.113281 147.472656 60.636719 145.296875 60.636719 C 143.394531 60.636719 141.804688 60.207031 140.648438 59.386719 C 139.496094 58.570312 138.90625 57.320312 138.90625 55.730469 C 138.90625 54.730469 139.175781 53.796875 139.722656 52.980469 C 140.265625 52.160156 140.921875 51.570312 141.785156 51.140625 Z M 141.785156 51.140625 "/>
<path style=" stroke:none;fill-rule:nonzero;fill:rgb(0%,40.784314%,29.019608%);fill-opacity:1;" d="M 244.558594 50.835938 C 244.113281 50.589844 243.777344 50.234375 243.507812 49.8125 C 243.261719 49.363281 243.125 48.894531 243.125 48.382812 C 243.125 47.871094 243.261719 47.378906 243.507812 46.957031 C 243.753906 46.507812 244.113281 46.175781 244.558594 45.929688 C 245.007812 45.683594 245.503906 45.550781 246.0625 45.550781 C 246.621094 45.550781 247.117188 45.683594 247.566406 45.929688 C 248.011719 46.175781 248.347656 46.53125 248.617188 46.957031 C 248.863281 47.402344 249 47.871094 249 48.382812 C 249 48.894531 248.863281 49.386719 248.617188 49.8125 C 248.371094 50.257812 248.011719 50.589844 247.566406 50.835938 C 247.117188 51.082031 246.621094 51.214844 246.0625 51.214844 C 245.523438 51.214844 245.007812 51.082031 244.558594 50.835938 Z M 247.320312 50.503906 C 247.699219 50.300781 247.96875 49.988281 248.191406 49.632812 C 248.394531 49.253906 248.507812 48.828125 248.507812 48.359375 C 248.507812 47.890625 248.394531 47.46875 248.191406 47.089844 C 247.988281 46.710938 247.699219 46.421875 247.320312 46.21875 C 246.9375 46.019531 246.53125 45.90625 246.0625 45.90625 C 245.59375 45.90625 245.1875 46.019531 244.804688 46.21875 C 244.425781 46.421875 244.15625 46.734375 243.933594 47.089844 C 243.730469 47.46875 243.617188 47.890625 243.617188 48.359375 C 243.617188 48.828125 243.730469 49.253906 243.933594 49.632812 C 244.136719 50.011719 244.425781 50.300781 244.804688 50.503906 C 245.1875 50.703125 245.59375 50.8125 246.0625 50.8125 C 246.53125 50.8125 246.960938 50.703125 247.320312 50.503906 Z M 244.851562 49.722656 L 244.851562 49.519531 L 244.898438 49.5 L 245.03125 49.5 C 245.074219 49.5 245.121094 49.476562 245.144531 49.453125 C 245.1875 49.410156 245.1875 49.386719 245.1875 49.34375 L 245.1875 47.269531 C 245.1875 47.222656 245.164062 47.179688 245.144531 47.15625 C 245.097656 47.113281 245.074219 47.113281 245.03125 47.113281 L 244.898438 47.113281 L 244.851562 47.089844 L 244.851562 46.890625 L 244.898438 46.867188 L 246.0625 46.867188 C 246.398438 46.867188 246.644531 46.933594 246.847656 47.089844 C 247.050781 47.246094 247.136719 47.445312 247.136719 47.714844 C 247.136719 47.914062 247.074219 48.117188 246.914062 48.25 C 246.757812 48.40625 246.578125 48.496094 246.355469 48.515625 L 246.621094 48.605469 L 247.136719 49.429688 C 247.183594 49.5 247.230469 49.519531 247.296875 49.519531 L 247.429688 49.519531 L 247.453125 49.542969 L 247.453125 49.742188 L 247.429688 49.765625 L 246.734375 49.765625 L 246.691406 49.742188 L 245.972656 48.539062 L 245.792969 48.539062 L 245.792969 49.34375 C 245.792969 49.386719 245.816406 49.429688 245.839844 49.453125 C 245.882812 49.5 245.90625 49.5 245.949219 49.5 L 246.085938 49.5 L 246.128906 49.519531 L 246.128906 49.722656 L 246.085938 49.742188 L 244.898438 49.742188 Z M 245.996094 48.273438 C 246.175781 48.273438 246.332031 48.226562 246.421875 48.117188 C 246.511719 48.027344 246.578125 47.871094 246.578125 47.691406 C 246.578125 47.511719 246.53125 47.378906 246.445312 47.269531 C 246.355469 47.15625 246.21875 47.113281 246.0625 47.113281 L 245.972656 47.113281 C 245.925781 47.113281 245.882812 47.132812 245.863281 47.15625 C 245.816406 47.199219 245.816406 47.222656 245.816406 47.269531 L 245.816406 48.273438 Z M 245.996094 48.273438 "/>
</g>
</svg>
