<?xml version="1.0" encoding="UTF-8"?>
<svg xmlns="http://www.w3.org/2000/svg" xmlns:xlink="http://www.w3.org/1999/xlink" width="269px" height="80px" viewBox="0 0 269 80" version="1.1">
<defs>
<linearGradient id="linear0" gradientUnits="userSpaceOnUse" x1="34.5132" y1="15.5354" x2="27.1574" y2="30.4484" gradientTransform="matrix(2.423423,0,0,2.424242,0,0)">
<stop offset="0" style="stop-color:rgb(24.705882%,52.941176%,24.705882%);stop-opacity:1;"/>
<stop offset="0.3296" style="stop-color:rgb(24.705882%,54.509804%,23.921569%);stop-opacity:1;"/>
<stop offset="0.6367" style="stop-color:rgb(24.313725%,58.823529%,21.960784%);stop-opacity:1;"/>
<stop offset="0.9341" style="stop-color:rgb(23.921569%,66.27451%,18.039216%);stop-opacity:1;"/>
<stop offset="1" style="stop-color:rgb(23.921569%,68.235294%,16.862745%);stop-opacity:1;"/>
</linearGradient>
<linearGradient id="linear1" gradientUnits="userSpaceOnUse" x1="30.0088" y1="23.3589" x2="50.5328" y2="8.28841" gradientTransform="matrix(2.423423,0,0,2.424242,0,0)">
<stop offset="0.1376" style="stop-color:rgb(24.705882%,52.941176%,24.705882%);stop-opacity:1;"/>
<stop offset="0.4016" style="stop-color:rgb(32.156863%,62.745098%,26.666667%);stop-opacity:1;"/>
<stop offset="0.7129" style="stop-color:rgb(39.215686%,71.764706%,28.627451%);stop-opacity:1;"/>
<stop offset="0.9081" style="stop-color:rgb(41.568627%,74.901961%,29.411765%);stop-opacity:1;"/>
</linearGradient>
<linearGradient id="linear2" gradientUnits="userSpaceOnUse" x1="21.9168" y1="22.2608" x2="40.5549" y2="22.2608" gradientTransform="matrix(2.423423,0,0,2.424242,0,0)">
<stop offset="0.0919165" style="stop-color:rgb(41.568627%,74.901961%,29.411765%);stop-opacity:1;"/>
<stop offset="0.2871" style="stop-color:rgb(39.215686%,71.764706%,28.627451%);stop-opacity:1;"/>
<stop offset="0.5984" style="stop-color:rgb(32.156863%,62.745098%,26.666667%);stop-opacity:1;"/>
<stop offset="0.8624" style="stop-color:rgb(24.705882%,52.941176%,24.705882%);stop-opacity:1;"/>
</linearGradient>
</defs>
<g id="surface1">
<path style=" stroke:none;fill-rule:nonzero;fill:rgb(37.254902%,62.745098%,30.588235%);fill-opacity:1;" d="M 236.742188 79.371094 C 236.046875 79.371094 235.398438 79.183594 234.796875 78.859375 L 228.628906 75.171875 C 227.703125 74.65625 228.164062 74.472656 228.441406 74.378906 C 229.695312 73.957031 229.925781 73.863281 231.226562 73.117188 C 231.363281 73.023438 231.550781 73.070312 231.6875 73.164062 L 236.417969 76.011719 C 236.605469 76.105469 236.835938 76.105469 236.972656 76.011719 L 255.476562 65.230469 C 255.660156 65.136719 255.753906 64.949219 255.753906 64.71875 L 255.753906 43.203125 C 255.753906 42.96875 255.660156 42.78125 255.476562 42.6875 L 236.972656 31.953125 C 236.789062 31.863281 236.558594 31.863281 236.417969 31.953125 L 217.917969 42.6875 C 217.734375 42.78125 217.640625 43.015625 217.640625 43.203125 L 217.640625 64.71875 C 217.640625 64.902344 217.734375 65.136719 217.917969 65.230469 L 222.972656 68.171875 C 225.707031 69.570312 227.421875 67.9375 227.421875 66.304688 L 227.421875 45.070312 C 227.421875 44.789062 227.65625 44.507812 227.980469 44.507812 L 230.34375 44.507812 C 230.621094 44.507812 230.902344 44.742188 230.902344 45.070312 L 230.902344 66.304688 C 230.902344 69.992188 228.90625 72.136719 225.429688 72.136719 C 224.363281 72.136719 223.527344 72.136719 221.164062 70.972656 L 216.296875 68.171875 C 215.089844 67.46875 214.347656 66.164062 214.347656 64.761719 L 214.347656 43.25 C 214.347656 41.847656 215.089844 40.542969 216.296875 39.84375 L 234.796875 29.0625 C 235.953125 28.40625 237.53125 28.40625 238.691406 29.0625 L 257.191406 39.84375 C 258.394531 40.542969 259.136719 41.847656 259.136719 43.25 L 259.136719 64.761719 C 259.136719 66.164062 258.394531 67.46875 257.191406 68.171875 L 238.691406 78.953125 C 238.132812 79.183594 237.4375 79.371094 236.742188 79.371094 Z M 236.742188 79.371094 "/>
<path style=" stroke:none;fill-rule:nonzero;fill:rgb(37.254902%,62.745098%,30.588235%);fill-opacity:1;" d="M 242.492188 64.578125 C 234.378906 64.578125 232.707031 60.84375 232.707031 57.667969 C 232.707031 57.390625 232.941406 57.109375 233.265625 57.109375 L 235.675781 57.109375 C 235.953125 57.109375 236.1875 57.296875 236.1875 57.578125 C 236.558594 60.050781 237.625 61.261719 242.539062 61.261719 C 246.433594 61.261719 248.101562 60.375 248.101562 58.277344 C 248.101562 57.0625 247.636719 56.175781 241.5625 55.570312 C 236.511719 55.054688 233.359375 53.9375 233.359375 49.875 C 233.359375 46.09375 236.511719 43.855469 241.796875 43.855469 C 247.730469 43.855469 250.652344 45.910156 251.023438 50.390625 C 251.023438 50.527344 250.976562 50.667969 250.886719 50.808594 C 250.789062 50.902344 250.652344 50.996094 250.511719 50.996094 L 248.054688 50.996094 C 247.824219 50.996094 247.589844 50.808594 247.546875 50.574219 C 246.988281 48.007812 245.550781 47.167969 241.75 47.167969 C 237.484375 47.167969 236.972656 48.664062 236.972656 49.78125 C 236.972656 51.136719 237.578125 51.554688 243.328125 52.300781 C 249.027344 53.050781 251.71875 54.121094 251.71875 58.136719 C 251.71875 62.242188 248.332031 64.578125 242.492188 64.578125 Z M 242.492188 64.578125 "/>
<path style=" stroke:none;fill-rule:nonzero;fill:rgb(37.254902%,62.745098%,30.588235%);fill-opacity:1;" d="M 269.199219 41.988281 C 269.199219 43.949219 267.578125 45.582031 265.628906 45.582031 C 263.683594 45.582031 262.058594 43.996094 262.058594 41.988281 C 262.058594 39.933594 263.730469 38.394531 265.628906 38.394531 C 267.53125 38.394531 269.199219 39.980469 269.199219 41.988281 Z M 262.617188 41.988281 C 262.617188 43.667969 263.960938 45.023438 265.582031 45.023438 C 267.253906 45.023438 268.597656 43.621094 268.597656 41.988281 C 268.597656 40.308594 267.253906 39 265.582031 39 C 264.007812 39 262.617188 40.308594 262.617188 41.988281 Z M 264.285156 39.980469 L 265.675781 39.980469 C 266.140625 39.980469 267.070312 39.980469 267.070312 41.054688 C 267.070312 41.800781 266.601562 41.941406 266.324219 42.035156 C 266.882812 42.082031 266.929688 42.457031 266.972656 42.96875 C 267.019531 43.296875 267.070312 43.855469 267.160156 44.042969 L 266.324219 44.042969 C 266.324219 43.855469 266.1875 42.828125 266.1875 42.78125 C 266.140625 42.546875 266.046875 42.457031 265.769531 42.457031 L 265.074219 42.457031 L 265.074219 44.089844 L 264.285156 44.089844 Z M 265.027344 41.753906 L 265.628906 41.753906 C 266.140625 41.753906 266.234375 41.382812 266.234375 41.195312 C 266.234375 40.636719 265.863281 40.636719 265.628906 40.636719 L 264.980469 40.636719 L 264.980469 41.753906 Z M 265.027344 41.753906 "/>
<path style=" stroke:none;fill-rule:evenodd;fill:rgb(100%,100%,100%);fill-opacity:1;" d="M 44 42.28125 C 44 41.441406 43.539062 40.648438 42.796875 40.230469 L 23.183594 28.792969 C 22.859375 28.609375 22.488281 28.515625 22.117188 28.46875 C 22.070312 28.46875 21.929688 28.46875 21.929688 28.46875 C 21.558594 28.46875 21.1875 28.609375 20.863281 28.792969 L 1.207031 40.183594 C 0.464844 40.601562 0 41.394531 0 42.28125 L 0.046875 72.898438 C 0.046875 73.316406 0.277344 73.738281 0.648438 73.925781 C 1.019531 74.15625 1.484375 74.15625 1.808594 73.925781 L 13.492188 67.203125 C 14.234375 66.785156 14.699219 65.992188 14.699219 65.152344 L 14.699219 50.824219 C 14.699219 49.984375 15.160156 49.191406 15.902344 48.769531 L 20.863281 45.875 C 21.234375 45.644531 21.652344 45.550781 22.070312 45.550781 C 22.488281 45.550781 22.90625 45.644531 23.230469 45.875 L 28.191406 48.769531 C 28.933594 49.191406 29.394531 49.984375 29.394531 50.824219 L 29.394531 65.152344 C 29.394531 65.992188 29.859375 66.785156 30.601562 67.203125 L 42.191406 73.925781 C 42.5625 74.15625 43.027344 74.15625 43.398438 73.925781 C 43.769531 73.738281 44 73.316406 44 72.898438 Z M 44 42.28125 "/>
<path style=" stroke:none;fill-rule:evenodd;fill:rgb(100%,100%,100%);fill-opacity:1;" d="M 138.496094 0.140625 C 138.125 -0.046875 137.660156 -0.046875 137.335938 0.140625 C 136.964844 0.375 136.730469 0.746094 136.730469 1.167969 L 136.730469 31.503906 C 136.730469 31.78125 136.59375 32.0625 136.316406 32.25 C 136.035156 32.390625 135.757812 32.390625 135.480469 32.25 L 130.566406 29.402344 C 129.824219 28.980469 128.941406 28.980469 128.199219 29.402344 L 108.542969 40.835938 C 107.800781 41.257812 107.335938 42.050781 107.335938 42.890625 L 107.335938 65.710938 C 107.335938 66.550781 107.800781 67.34375 108.542969 67.765625 L 128.199219 79.199219 C 128.941406 79.617188 129.824219 79.617188 130.566406 79.199219 L 150.226562 67.765625 C 150.964844 67.34375 151.429688 66.550781 151.429688 65.710938 L 151.429688 8.820312 C 151.429688 7.933594 150.964844 7.140625 150.226562 6.71875 Z M 136.6875 58.199219 C 136.6875 58.429688 136.59375 58.617188 136.40625 58.710938 L 129.683594 62.632812 C 129.5 62.722656 129.265625 62.722656 129.082031 62.632812 L 122.359375 58.710938 C 122.171875 58.617188 122.082031 58.382812 122.082031 58.199219 L 122.082031 50.355469 C 122.082031 50.125 122.171875 49.9375 122.359375 49.84375 L 129.082031 45.921875 C 129.265625 45.828125 129.5 45.828125 129.683594 45.921875 L 136.40625 49.84375 C 136.59375 49.9375 136.6875 50.171875 136.6875 50.355469 Z M 136.6875 58.199219 "/>
<path style=" stroke:none;fill-rule:evenodd;fill:rgb(100%,100%,100%);fill-opacity:1;" d="M 203.914062 50.171875 C 204.65625 49.75 205.074219 48.957031 205.074219 48.117188 L 205.074219 42.5625 C 205.074219 41.722656 204.609375 40.929688 203.914062 40.507812 L 184.394531 29.121094 C 183.652344 28.703125 182.773438 28.703125 182.03125 29.121094 L 162.371094 40.554688 C 161.628906 40.976562 161.164062 41.769531 161.164062 42.609375 L 161.164062 65.429688 C 161.164062 66.269531 161.628906 67.066406 162.371094 67.484375 L 181.890625 78.683594 C 182.632812 79.105469 183.511719 79.105469 184.210938 78.683594 L 196.03125 72.058594 C 196.402344 71.871094 196.636719 71.453125 196.636719 71.03125 C 196.636719 70.613281 196.402344 70.191406 196.03125 70.003906 L 176.28125 58.570312 C 175.910156 58.335938 175.679688 57.964844 175.679688 57.542969 L 175.679688 50.402344 C 175.679688 49.984375 175.910156 49.5625 176.28125 49.375 L 182.445312 45.828125 C 182.816406 45.597656 183.28125 45.597656 183.652344 45.828125 L 189.820312 49.375 C 190.191406 49.609375 190.421875 49.984375 190.421875 50.402344 L 190.421875 56.003906 C 190.421875 56.421875 190.652344 56.84375 191.023438 57.03125 C 191.394531 57.265625 191.859375 57.265625 192.230469 57.03125 Z M 203.914062 50.171875 "/>
<path style=" stroke:none;fill-rule:evenodd;fill:rgb(37.254902%,62.745098%,30.588235%);fill-opacity:1;" d="M 182.910156 49.097656 C 183.050781 49.003906 183.234375 49.003906 183.375 49.097656 L 187.128906 51.289062 C 187.269531 51.382812 187.363281 51.523438 187.363281 51.710938 L 187.363281 56.097656 C 187.363281 56.285156 187.269531 56.425781 187.128906 56.515625 L 183.375 58.710938 C 183.234375 58.804688 183.050781 58.804688 182.910156 58.710938 L 179.15625 56.515625 C 179.015625 56.425781 178.925781 56.285156 178.925781 56.097656 L 178.925781 51.710938 C 178.925781 51.523438 179.015625 51.382812 179.15625 51.289062 Z M 182.910156 49.097656 "/>
<path style=" stroke:none;fill-rule:nonzero;fill:url(#linear0);" d="M 76.871094 29.214844 C 76.128906 28.796875 75.25 28.796875 74.507812 29.214844 L 54.988281 40.554688 C 54.246094 40.976562 53.828125 41.769531 53.828125 42.609375 L 53.828125 65.335938 C 53.828125 66.179688 54.292969 66.972656 54.988281 67.390625 L 74.507812 78.730469 C 75.25 79.152344 76.128906 79.152344 76.871094 78.730469 L 96.390625 67.390625 C 97.132812 66.972656 97.550781 66.179688 97.550781 65.335938 L 97.550781 42.609375 C 97.550781 41.769531 97.089844 40.976562 96.390625 40.554688 Z M 76.871094 29.214844 "/>
<path style=" stroke:none;fill-rule:nonzero;fill:url(#linear1);" d="M 96.4375 40.554688 L 76.828125 29.214844 C 76.640625 29.121094 76.410156 29.027344 76.222656 28.980469 L 54.246094 66.832031 C 54.433594 67.066406 54.664062 67.25 54.894531 67.390625 L 74.507812 78.730469 C 75.066406 79.058594 75.714844 79.152344 76.316406 78.964844 L 96.949219 40.976562 C 96.808594 40.789062 96.625 40.648438 96.4375 40.554688 Z M 96.4375 40.554688 "/>
<path style=" stroke:none;fill-rule:nonzero;fill:url(#linear2);" d="M 96.4375 67.390625 C 96.996094 67.0625 97.414062 66.503906 97.597656 65.898438 L 76.132812 28.933594 C 75.574219 28.839844 74.972656 28.886719 74.460938 29.214844 L 54.988281 40.507812 L 75.992188 79.058594 C 76.269531 79.011719 76.59375 78.917969 76.875 78.777344 Z M 96.4375 67.390625 "/>
</g>
</svg>
