<svg width="266" height="72" viewBox="0 0 266 72" fill="none" xmlns="http://www.w3.org/2000/svg">
<path d="M175.894 68.6344L172.82 60.7978H175.36L177.887 67.9541L175.894 68.6466V68.6344ZM174.205 71.9999L176.417 67.1036L176.83 66.4353L178.895 60.7857H181.398L176.55 71.9999H174.193H174.205ZM169.989 68.7803V63.8231C169.989 63.3857 169.88 63.0577 169.649 62.839C169.431 62.6203 169.102 62.511 168.677 62.511C168.313 62.511 167.985 62.596 167.693 62.7661C167.414 62.9362 167.183 63.167 167.025 63.4586C166.867 63.7502 166.794 64.0904 166.794 64.4914L166.587 62.5596C166.855 61.9764 167.231 61.5147 167.73 61.1623C168.24 60.81 168.872 60.6277 169.613 60.6277C170.5 60.6277 171.18 60.8829 171.654 61.381C172.128 61.867 172.359 62.5353 172.359 63.3736V68.7803H170.002H169.989ZM164.425 68.7803V60.7857H166.733V62.6689H166.782V68.7803H164.425ZM157.706 68.9382C156.916 68.9382 156.284 68.7438 155.811 68.3429C155.337 67.9298 155.106 67.3952 155.106 66.7269C155.106 65.9858 155.385 65.3905 155.932 64.9409C156.491 64.4792 157.281 64.1876 158.289 64.0418L160.622 63.7138V65.0746L158.678 65.3783C158.265 65.4391 157.949 65.5606 157.755 65.7185C157.56 65.8886 157.451 66.1194 157.451 66.411C157.451 66.6783 157.548 66.8727 157.73 67.0064C157.913 67.14 158.168 67.2129 158.484 67.2129C158.97 67.2129 159.395 67.0793 159.735 66.8241C160.075 66.5568 160.257 66.2409 160.257 65.8886L160.476 67.14C160.245 67.7354 159.893 68.1849 159.431 68.4887C158.957 68.7924 158.386 68.9382 157.706 68.9382ZM160.5 68.7803C160.44 68.5494 160.391 68.3064 160.355 68.0391C160.33 67.7718 160.318 67.4802 160.318 67.1279H160.257V63.3493C160.257 63.0213 160.148 62.7782 159.929 62.596C159.723 62.4138 159.407 62.3166 158.994 62.3166C158.581 62.3166 158.277 62.3895 158.034 62.5231C157.803 62.6568 157.657 62.8633 157.584 63.1185H155.337C155.446 62.4016 155.811 61.8063 156.455 61.3324C157.086 60.8586 157.961 60.6277 159.079 60.6277C160.197 60.6277 161.108 60.8829 161.715 61.3932C162.323 61.9035 162.627 62.6446 162.627 63.6044V67.1279C162.627 67.3952 162.639 67.6503 162.675 67.9298C162.712 68.1971 162.785 68.4765 162.857 68.7803H160.5ZM149.869 67.055C150.428 67.055 150.878 66.8606 151.218 66.4596C151.558 66.0587 151.74 65.4998 151.74 64.7708C151.74 64.0418 151.558 63.4829 151.206 63.0941C150.866 62.7054 150.404 62.511 149.845 62.511C149.286 62.511 148.849 62.7053 148.496 63.1063C148.156 63.4951 147.974 64.054 147.974 64.783C147.974 65.512 148.144 66.083 148.496 66.4718C148.849 66.8606 149.31 67.055 149.882 67.055H149.869ZM150.525 68.9382C149.76 68.9382 149.153 68.7559 148.691 68.4036C148.229 68.0513 147.962 67.5653 147.877 66.9456H147.998V71.9999H145.641V60.7857H147.95V62.5596L147.804 62.5231C147.913 61.9399 148.229 61.4782 148.739 61.138C149.25 60.7978 149.882 60.6156 150.635 60.6156C151.388 60.6156 151.983 60.7857 152.506 61.138C153.04 61.4782 153.441 61.9521 153.733 62.5596C154.025 63.1792 154.17 63.9082 154.17 64.7344C154.17 65.5606 154.025 66.3138 153.721 66.9456C153.417 67.5774 152.992 68.0634 152.445 68.4036C151.898 68.7438 151.254 68.926 150.513 68.926L150.525 68.9382ZM141.51 68.7803V63.7016C141.51 63.2885 141.401 62.9969 141.182 62.8025C140.976 62.6081 140.672 62.4988 140.283 62.4988C139.943 62.4988 139.639 62.5717 139.36 62.7296C139.092 62.8754 138.874 63.0941 138.716 63.3736C138.558 63.6409 138.485 63.9689 138.485 64.3456L138.121 62.5474C138.388 61.9642 138.764 61.5025 139.287 61.1502C139.809 60.7978 140.441 60.6156 141.17 60.6156C142.033 60.6156 142.701 60.8586 143.163 61.3567C143.637 61.8427 143.867 62.4745 143.867 63.2521V68.7681H141.51V68.7803ZM136.128 68.7803V63.7016C136.128 63.2885 136.019 62.9969 135.8 62.8025C135.593 62.6081 135.29 62.4988 134.901 62.4988C134.561 62.4988 134.257 62.5717 133.977 62.7296C133.71 62.8754 133.491 63.0941 133.333 63.3736C133.176 63.6409 133.103 63.9689 133.103 64.3456L132.896 62.5474C133.163 61.9642 133.528 61.5025 134.026 61.1502C134.524 60.7978 135.132 60.6156 135.824 60.6156C136.663 60.6156 137.306 60.8464 137.768 61.3203C138.242 61.7941 138.473 62.3773 138.473 63.0941V68.7681H136.116L136.128 68.7803ZM130.746 68.7803V60.7857H133.054V62.6689H133.103V68.7803H130.746ZM125.072 67.0914C125.436 67.0914 125.764 66.9942 126.056 66.812C126.36 66.6297 126.603 66.3624 126.773 66.0101C126.955 65.6577 127.04 65.2325 127.04 64.7344C127.04 64.0175 126.846 63.4586 126.457 63.0698C126.08 62.6689 125.618 62.4745 125.059 62.4745C124.501 62.4745 124.039 62.6689 123.65 63.0698C123.273 63.4708 123.091 64.0175 123.091 64.7344C123.091 65.2204 123.176 65.6456 123.359 66.0101C123.541 66.3503 123.772 66.6176 124.063 66.812C124.367 66.9942 124.695 67.0914 125.072 67.0914ZM125.072 68.9382C124.197 68.9382 123.419 68.7681 122.751 68.4158C122.095 68.0634 121.573 67.5653 121.196 66.9456C120.831 66.3138 120.649 65.5727 120.649 64.7465C120.649 63.9203 120.831 63.2035 121.196 62.5839C121.573 61.9642 122.095 61.4904 122.751 61.138C123.419 60.7978 124.197 60.6156 125.072 60.6156C125.946 60.6156 126.736 60.7857 127.392 61.138C128.06 61.4782 128.583 61.9642 128.947 62.5839C129.312 63.2035 129.494 63.9203 129.494 64.7465C129.494 65.5727 129.312 66.3017 128.935 66.9456C128.571 67.5774 128.048 68.0634 127.38 68.4158C126.724 68.756 125.959 68.9382 125.072 68.9382ZM114.732 68.9382C113.918 68.9382 113.165 68.7924 112.472 68.513C111.78 68.2214 111.184 67.8083 110.674 67.2858C110.176 66.7634 109.775 66.1438 109.496 65.4391C109.216 64.7222 109.07 63.9325 109.07 63.082C109.07 62.2315 109.204 61.4661 109.483 60.7614C109.763 60.0567 110.152 59.4492 110.662 58.9389C111.172 58.4165 111.78 58.0155 112.46 57.7482C113.153 57.4688 113.906 57.323 114.732 57.323C115.668 57.323 116.494 57.5052 117.235 57.8697C117.988 58.2221 118.596 58.7324 119.07 59.3885C119.556 60.0324 119.847 60.7978 119.944 61.6726H117.587C117.454 60.8707 117.126 60.2632 116.603 59.8502C116.081 59.4371 115.461 59.2184 114.732 59.2184C114.1 59.2184 113.529 59.3642 113.043 59.6679C112.557 59.9717 112.181 60.409 111.913 60.9801C111.646 61.539 111.5 62.2315 111.5 63.0334C111.5 63.8353 111.634 64.5521 111.913 65.1475C112.193 65.7307 112.582 66.1923 113.08 66.5082C113.566 66.8241 114.137 66.9821 114.769 66.9821C115.449 66.9821 116.044 66.7755 116.567 66.3746C117.089 65.9615 117.429 65.3662 117.587 64.5521H119.969C119.835 65.4269 119.519 66.2045 119.045 66.8606C118.559 67.5045 117.952 68.0148 117.211 68.3672C116.47 68.7195 115.643 68.9017 114.72 68.9017L114.732 68.9382ZM100.809 68.926C99.3506 68.926 98.172 68.598 97.2972 67.9541C96.4224 67.298 95.9122 66.3746 95.7664 65.1839H98.087C98.1599 65.7914 98.4515 66.2652 98.9618 66.6297C99.472 66.9699 100.128 67.1522 100.918 67.1522C101.562 67.1522 102.06 67.0428 102.412 66.812C102.765 66.5811 102.947 66.2774 102.947 65.8886C102.947 65.5241 102.838 65.2325 102.631 65.0138C102.424 64.783 102.06 64.6007 101.55 64.4671L99.4477 63.8839C98.3664 63.5801 97.5767 63.1671 97.0785 62.6446C96.5925 62.11 96.3374 61.4418 96.3374 60.652C96.3374 59.9717 96.5075 59.3885 96.8598 58.8903C97.2122 58.3922 97.7103 58.0034 98.3543 57.7482C98.986 57.481 99.7393 57.3351 100.602 57.3351C101.914 57.3351 102.971 57.651 103.749 58.2707C104.539 58.8903 104.976 59.7044 105.085 60.7371H102.765C102.655 60.1782 102.4 59.7773 101.999 59.51C101.598 59.2427 101.088 59.1212 100.468 59.1212C99.9216 59.1212 99.4963 59.2305 99.1683 59.4371C98.8403 59.6436 98.6823 59.9231 98.6823 60.2875C98.6823 60.5548 98.7674 60.81 98.9496 61.0408C99.1318 61.2595 99.4963 61.4539 100.067 61.5997L102.169 62.1829C103.275 62.4867 104.077 62.8997 104.551 63.4343C105.037 63.9568 105.292 64.625 105.292 65.4269C105.292 66.5568 104.903 67.4195 104.113 68.027C103.324 68.6344 102.242 68.9382 100.833 68.9382L100.809 68.926ZM85.8764 68.7803V57.4931H91.2345C92.0728 57.4931 92.7897 57.6389 93.385 57.9305C93.9925 58.2221 94.4542 58.6352 94.7822 59.1576C95.1224 59.6801 95.2804 60.2876 95.2804 60.9922C95.2804 61.6969 95.1103 62.3044 94.7822 62.839C94.442 63.3736 93.9803 63.7867 93.3729 64.0904C92.7775 64.382 92.0607 64.5278 91.2345 64.5278H87.784V62.6811H91.113C91.6719 62.6811 92.0971 62.5353 92.4009 62.2315C92.7168 61.9156 92.8747 61.5147 92.8747 61.0044C92.8747 60.4941 92.7168 60.1053 92.4009 59.8016C92.0971 59.4978 91.6719 59.352 91.113 59.352H88.2942V68.7924H85.8764V68.7803ZM79.5828 68.9382C77.9669 68.9382 76.7641 68.5008 75.9622 67.626C75.1725 66.7391 74.7715 65.4512 74.7715 63.7502V57.4931H77.1893V64.1755C77.1893 65.1596 77.408 65.8764 77.8333 66.3381C78.2585 66.7998 78.8539 67.0307 79.6071 67.0307C80.3604 67.0307 80.9558 66.7998 81.381 66.3381C81.8063 65.8764 82.0249 65.1596 82.0249 64.1876V57.4931H84.4428V63.7867C84.4428 65.4634 84.0418 66.7391 83.2399 67.626C82.438 68.5008 81.2231 68.9382 79.6071 68.9382H79.5828ZM62.0872 64.4063H68.4172V66.2895H62.0872V64.4063ZM68.2349 68.7803L64.5293 57.4931H66.6919L70.7378 68.7803H68.2349ZM59.9609 68.7803L64.0068 57.4931H66.0723L62.3544 68.7803H59.9609Z" fill="white"/>
<path d="M52.0996 20.1931C55.6595 20.1931 58.0651 19.3304 59.2436 17.6173C60.167 16.293 60.6044 13.8752 60.6044 10.2181C60.6044 6.6339 60.1427 4.24038 59.1707 2.86746C57.9436 1.11789 55.5623 0.230957 52.0874 0.230957H45.7938L45.7695 20.1931H52.0631H52.0874H52.0996ZM56.68 4.94507C56.8987 5.32171 57.1539 6.16005 57.2754 7.98252L57.3361 10.2302C57.3726 11.5667 57.2997 12.9275 57.1174 14.264C57.0081 15.078 56.5707 15.807 55.9024 16.2808C54.7239 16.8519 53.4239 17.107 52.1239 17.0098H48.9771L48.9892 3.40205H52.0874C54.5174 3.40205 56.0604 3.92449 56.68 4.94507Z" fill="#4981F2"/>
<path d="M65.0885 18.7954C66.1698 19.8768 67.725 20.4357 69.7054 20.4357C69.8148 20.4357 69.9362 20.4357 70.0456 20.4357C71.8924 20.4357 73.6541 19.5973 74.8205 18.1515L75.1971 17.6777L73.0345 15.5393L72.5728 16.1103C71.8924 16.9487 70.8475 17.4225 69.7662 17.3618H69.7297C67.725 17.3618 66.6558 16.3898 66.4371 14.3365H75.1728L75.2214 12.5504C75.2943 10.8859 74.8569 9.27001 73.9214 7.87278C72.9008 6.43911 71.2484 5.63722 69.4989 5.72226C67.5913 5.62507 65.781 6.4877 64.6511 8.01857L64.6268 8.05503C63.6427 9.5859 63.1688 11.3476 63.2539 13.1579C63.2539 15.6729 63.8735 17.5683 65.0885 18.7954ZM66.5343 11.2869C66.8624 9.59805 67.81 8.80831 69.4867 8.80831C71.3092 8.80831 71.8559 10.0233 72.0139 11.299H66.5343V11.2869Z" fill="#4981F2"/>
<path d="M81.6467 17.0704C81.5616 16.876 81.5252 16.6573 81.5495 16.4507V0.24292H78.4027V16.4993C78.3905 17.7022 78.7064 18.6377 79.3382 19.2695C79.9578 19.9013 80.8691 20.2172 82.0355 20.2172H82.7037V17.119H82.0476C81.8168 17.119 81.7074 17.0947 81.6588 17.0704H81.6467Z" fill="#4981F2"/>
<path d="M87.4673 3.77858H87.4916C88.0019 3.79073 88.4879 3.58419 88.8402 3.23185C89.2047 2.8795 89.4112 2.39351 89.3991 1.89537C89.3991 1.39723 89.2047 0.899083 88.8402 0.558889C88.4879 0.206545 88.014 0 87.5159 0H87.4794C86.9813 0 86.5074 0.194402 86.1551 0.546746C85.7906 0.89909 85.5841 1.38508 85.5962 1.88322C85.5962 2.39351 85.7906 2.8795 86.1551 3.23185C86.5074 3.58419 86.9813 3.79074 87.4551 3.79074L87.4673 3.77858Z" fill="#4981F2"/>
<path d="M85.9004 20.2168H89.0715L89.0836 5.96509H85.9247L85.9004 20.2168Z" fill="#4981F2"/>
<path d="M101.621 5.98945L98.2312 14.9074L94.8779 5.97729H91.5488L96.9069 20.229H99.5555L104.962 5.98945H101.621Z" fill="#4981F2"/>
<path d="M112.13 5.78319C110.222 5.68599 108.412 6.53647 107.282 8.06735L107.258 8.10379C106.274 9.63467 105.8 11.3964 105.885 13.2067C105.885 15.7217 106.504 17.6171 107.719 18.8442C108.801 19.9255 110.356 20.4844 112.336 20.4844C112.446 20.4844 112.567 20.4844 112.676 20.4844C114.523 20.4844 116.285 19.6461 117.451 18.2003L117.828 17.7386L115.665 15.5881L115.204 16.1591C114.523 16.9974 113.478 17.4713 112.397 17.4105H112.361C110.356 17.4105 109.287 16.4386 109.068 14.3852H117.804L117.852 12.5992C117.925 10.959 117.476 9.30663 116.552 7.92155C115.544 6.48788 113.879 5.68599 112.142 5.77104L112.13 5.78319ZM109.165 11.3235C109.493 9.63467 110.441 8.84493 112.118 8.84493C113.94 8.84493 114.487 10.0599 114.645 11.3356H109.165V11.3235Z" fill="#4981F2"/>
<path d="M129.785 6.94964L129.36 6.6216C128.533 6.00196 127.525 5.68606 126.492 5.75896C125.593 5.69821 124.706 5.89261 123.929 6.3057V5.98981H120.818V20.2415H123.904V10.8983V10.874C123.88 10.2908 124.16 9.74409 124.633 9.40389C125.593 8.69921 126.881 8.61416 127.914 9.2095L128.533 9.56185L129.773 6.92534L129.785 6.94964Z" fill="#4981F2"/>
<path d="M134.936 21.8939V21.9425C134.815 22.2827 134.633 22.5864 134.365 22.8173C134.074 22.9874 133.746 23.0603 133.405 23.036L132.178 22.9752L132.13 26.1342H133.575C133.575 26.1342 133.673 26.1342 133.733 26.1342C135.677 26.1342 137.366 24.8584 137.889 22.9752L144.255 6.00195H140.89L137.5 15.1264L134.171 6.00195H130.842L135.811 19.5854L134.924 21.8817L134.936 21.8939Z" fill="#4981F2"/>
<path d="M55.7082 26.7175C53.5942 26.7175 51.5773 27.3858 49.8642 28.6007C47.1912 30.4718 45.5996 33.5336 45.5996 36.7897C45.5996 42.2814 50.0829 46.7525 55.5746 46.7525H55.7933C61.2364 46.7161 65.7318 42.245 65.7925 36.7776C65.7682 34.8822 65.2337 33.0354 64.2495 31.4073C62.3785 28.5035 59.1831 26.7418 55.7204 26.7175H55.7082ZM62.5121 36.7411C62.5121 38.1626 62.0747 39.5356 61.2364 40.7019C59.9971 42.4515 57.9802 43.5085 55.8297 43.5207H55.5867C54.2017 43.5207 52.8773 43.0954 51.7474 42.3057C50.01 41.1029 48.9408 39.1468 48.8679 37.0448V36.7654C48.8801 33.0111 51.9296 29.9737 55.6839 29.9737H55.7082C56.9111 29.9737 58.1017 30.3139 59.1588 30.9335C61.2607 32.112 62.5486 34.3354 62.5243 36.7411H62.5121Z" fill="white"/>
<path d="M79.3758 43.5204H71.9402L71.9523 28.1995C71.9523 27.8593 71.8187 27.0331 70.5308 26.7658H70.47L70.2028 26.7537C69.8018 26.7537 68.8663 26.9116 68.6962 28.4303V28.4668L68.6719 45.112V45.2335C68.9392 46.6186 69.8869 46.7765 70.2756 46.7765H79.3758C79.8132 46.7765 80.603 46.6064 80.9553 45.4279L80.9918 45.2942L80.9675 45.1484C80.7731 43.6905 79.7768 43.5447 79.3637 43.5447L79.3758 43.5204Z" fill="white"/>
<path d="M96.8349 26.7898H96.7741H96.5676C96.1788 26.7898 95.2432 26.9356 95.0246 28.2721V28.3328L95.0002 39.3405C95.0002 39.9237 94.9152 40.4947 94.733 41.0415C94.1133 42.5724 92.6553 43.5565 91.003 43.5565H90.9665C90.1403 43.5565 89.3141 43.2771 88.6702 42.7546L88.5973 42.706C87.516 42.0621 86.9814 40.762 86.9814 38.7452V28.2356C86.9814 27.8954 86.8477 27.0692 85.5599 26.8019H85.4991L85.2318 26.7898C84.8309 26.7898 83.8953 26.9477 83.7252 28.4665V39.1218C83.6523 40.6527 84.0533 42.1593 84.843 43.4714V43.4958C86.1674 45.5005 88.3665 46.7397 90.7843 46.8126H91.1366C92.5703 46.7883 93.9554 46.3388 95.1218 45.5126C97.0171 44.249 98.1956 42.135 98.2564 39.8387V28.3571C98.2564 27.9805 98.1227 27.0571 96.8349 26.8141V26.7898Z" fill="white"/>
<path d="M114.961 26.766H114.901L102.581 26.7417C102.143 26.7417 101.378 26.9361 101.086 28.2118V28.2847L101.074 28.3576C101.074 28.7586 101.22 29.7062 102.605 29.9857H102.666L107.101 29.9978V45.1486L107.088 45.2094V45.2701C107.356 46.6552 108.303 46.801 108.704 46.801H108.85C110.211 46.5701 110.357 45.6346 110.357 45.2458V29.9857H114.718C116.237 29.8156 116.407 28.8801 116.407 28.4913V28.2969C116.407 27.9202 116.261 26.9968 114.974 26.7539L114.961 26.766Z" fill="white"/>
<path d="M123.541 26.6203L123.407 26.5959L123.14 26.6445H121.39L121.05 26.5959L120.904 26.6324C119.653 26.9969 119.471 27.7502 119.483 28.1511V28.2848C119.617 29.3539 120.175 29.7306 120.637 29.8642V43.5935C120.2 43.7029 119.689 44.043 119.483 45.0272V45.1001L119.471 45.2216C119.471 45.6225 119.617 46.5702 120.965 46.8132H123.444C123.845 46.8132 124.804 46.6795 125.047 45.3431V45.1001V45.0393C124.841 44.043 124.306 43.715 123.905 43.6056V29.8764C124.355 29.7549 124.89 29.3904 125.06 28.3941V28.2848C125.06 27.8838 124.926 26.9361 123.541 26.6445V26.6203Z" fill="white"/>
<path d="M138.398 26.7898C136.284 26.7898 134.267 27.4459 132.554 28.673C129.881 30.5441 128.289 33.6058 128.289 36.862C128.289 42.3537 132.772 46.8248 138.264 46.8248H138.483C143.938 46.7883 148.421 42.3172 148.482 36.8498C148.458 34.9545 147.923 33.1077 146.939 31.4796C145.068 28.5758 141.873 26.8141 138.41 26.7898H138.398ZM145.214 36.8012C145.214 38.2227 144.776 39.5957 143.938 40.7621C142.699 42.5238 140.682 43.5687 138.531 43.5808H138.288C136.903 43.5808 135.579 43.1556 134.449 42.3658C132.651 41.1265 131.57 39.0854 131.557 36.8984C131.545 35.4769 131.97 34.1161 132.784 32.9619C134.06 31.1394 136.138 30.0459 138.361 30.0459H138.398C139.601 30.0459 140.791 30.3861 141.848 31.0058C143.95 32.1843 145.238 34.4077 145.214 36.8134V36.8012Z" fill="white"/>
<path d="M166.077 26.8632H165.931C165.542 26.8632 164.631 26.9968 164.376 28.2847V28.3454L164.352 40.5195C158.459 32.9624 155.264 28.8922 154.608 28.1267C154.182 27.2763 153.636 26.851 152.955 26.851H152.761C152.36 26.851 151.412 27.009 151.266 28.5277V28.5641L151.242 45.1364V45.2579C151.509 46.6309 152.457 46.7767 152.846 46.7767H152.992C154.353 46.5458 154.498 45.6103 154.498 45.2215V33.254L163.635 44.8327C164.595 46.2542 165.251 46.8253 165.907 46.8253H166.016C167.462 46.5823 167.62 45.5981 167.62 45.185V28.4305V28.3211C167.401 26.9847 166.466 26.8389 166.065 26.8389L166.077 26.8632Z" fill="white"/>
<path d="M180.232 36.1452C179.819 35.7564 179.357 35.4283 178.859 35.1611C178.47 34.9545 178.045 34.7844 177.62 34.6751C176.915 34.4928 176.113 34.4564 175.518 34.0068C174.983 33.6059 174.594 33.0348 174.594 32.3423V31.9414C174.594 31.747 174.643 31.5526 174.728 31.3825L174.752 31.3339C175.044 30.5563 175.809 30.0217 176.648 30.0217H176.939C177.377 30.046 177.802 30.1796 178.166 30.4105C178.968 31.2853 179.466 31.6255 179.952 31.6255H180.062C181.435 31.3946 181.58 30.532 181.58 30.1675V29.7787L181.471 29.3899L181.41 29.2927C180.378 27.7375 178.652 26.802 176.781 26.802H176.769C176.016 26.8142 175.275 26.9599 174.57 27.2394C172.65 28.017 171.387 29.8516 171.338 31.9414V32.2937C171.338 34.7115 173.185 36.9106 175.518 37.4695C176.064 37.6032 176.684 37.7004 177.206 37.919C178.251 38.3564 178.956 39.3649 179.017 40.4948V40.9565C179.005 41.2602 178.944 41.5518 178.859 41.8434C178.409 42.8883 177.389 43.593 176.247 43.6416H175.834C175.177 43.593 174.558 43.3743 174.023 42.9734C173.331 42.1229 172.772 41.7462 172.201 41.7462C171.35 41.7462 170.755 42.293 170.585 43.2285L170.561 43.3743L170.731 44.0425L170.804 44.1397C171.994 45.8529 173.95 46.8613 176.028 46.8613H176.113C177.389 46.8613 178.604 46.4846 179.649 45.7557C181.337 44.6257 182.334 42.7425 182.309 40.7014C182.297 38.9639 181.495 37.2994 180.244 36.133L180.232 36.1452Z" fill="white"/>
<path d="M5.6622 36.7534C3.45094 36.7534 1.65277 38.5273 1.64062 40.7385C1.65277 41.5283 1.84717 42.3059 2.19951 43.0106C2.52756 43.6909 2.9285 44.3227 3.40234 44.9059C3.92478 45.562 4.50797 46.1695 5.15191 46.7041C5.45566 46.9349 5.86875 46.9349 6.17249 46.7041C6.81643 46.1573 7.39962 45.562 7.92206 44.9059C8.3959 44.3227 8.79685 43.6909 9.12489 43.0106C9.47724 42.3059 9.65948 41.5283 9.68378 40.7385C9.68378 38.5273 7.88562 36.7534 5.67435 36.7534H5.6622ZM4.00983 40.7143C4.00983 39.803 4.76312 39.0619 5.6865 39.074C6.59774 39.074 7.32672 39.8273 7.32672 40.7385C7.32672 41.6619 6.57344 42.4031 5.65005 42.4031C4.73882 42.4031 3.99768 41.6376 4.00983 40.7264V40.7143Z" fill="#F24C3D"/>
<path d="M34.9317 30.5806C34.8467 30.5806 34.7738 30.5806 34.6888 30.5806H32.842C32.8906 30.8479 32.9149 31.1152 32.9027 31.3946C32.9027 32.2451 32.684 33.047 32.2952 33.7517H34.6159C37.3617 33.6788 39.658 35.8657 39.7309 38.6237C39.7674 39.9602 39.2692 41.2238 38.358 42.1836C37.4346 43.1434 36.1953 43.7023 34.8589 43.7266C34.7981 43.7266 34.7374 43.7266 34.6766 43.7266H16.0631C15.2734 43.6902 14.5809 44.2491 14.4472 45.051C14.3865 45.4641 14.4837 45.8893 14.7388 46.2295C14.9939 46.5697 15.3584 46.7884 15.7715 46.8613C15.8566 46.8734 15.9416 46.8734 16.0267 46.8856H34.5673C34.628 46.8977 34.6888 46.8977 34.7495 46.8977C36.8636 46.8977 38.8561 46.0958 40.387 44.6379C41.9665 43.1313 42.8534 41.1023 42.902 38.9275C42.9992 34.4321 39.415 30.6899 34.9196 30.5927L34.9317 30.5806Z" fill="white"/>
<path d="M34.3375 9.56201C32.0777 9.56201 30.2309 11.3845 30.2188 13.6443C30.2309 14.4462 30.4253 15.2481 30.7898 15.9649C31.1178 16.6575 31.5309 17.3136 32.0169 17.9089C32.5515 18.5771 33.1468 19.1968 33.8029 19.7557C34.1067 19.9987 34.5441 19.9987 34.8478 19.7557C35.5039 19.1968 36.0992 18.5771 36.6338 17.9089C37.1198 17.3136 37.5329 16.6575 37.8731 15.9649C38.2376 15.236 38.432 14.4462 38.4442 13.6443C38.4442 11.3845 36.5974 9.56201 34.3375 9.56201ZM32.6487 13.62C32.6487 12.6845 33.4263 11.9312 34.3618 11.9312C35.2974 11.9312 36.0506 12.6967 36.0506 13.6322C36.0506 14.5799 35.2731 15.3332 34.3375 15.3332C33.402 15.3332 32.6487 14.5556 32.6487 13.62Z" fill="#F24C3D"/>
<path d="M12.807 32.2211C12.8192 31.6379 12.965 31.0668 13.208 30.5565H8.26303C6.92655 30.5808 5.66297 30.0827 4.70314 29.1593C3.74331 28.2359 3.19657 26.9845 3.17227 25.6602C3.14797 24.3237 3.64611 23.0601 4.56949 22.1003C5.49288 21.1405 6.74431 20.5937 8.06863 20.5694C8.10508 20.5694 8.14153 20.5694 8.19013 20.5694H26.7915C26.7915 20.5694 26.8158 20.5816 26.8279 20.5816C27.6055 20.5816 28.2737 20.0105 28.4074 19.2329C28.4681 18.8198 28.3709 18.3946 28.1158 18.0544C27.8606 17.7142 27.4961 17.4955 27.083 17.4226C26.998 17.4105 26.913 17.3983 26.8279 17.3983L8.28732 17.374C8.28732 17.374 8.20228 17.374 8.15368 17.374C3.71901 17.374 0.0740717 20.9461 0.00117303 25.405C-0.0352763 27.5798 0.778759 29.6453 2.29748 31.2126C3.81621 32.78 5.84522 33.6547 8.03218 33.6912C8.08078 33.6912 8.11723 33.6912 8.16583 33.6912H13.05C12.8678 33.2173 12.7827 32.7071 12.7949 32.1968L12.807 32.2211Z" fill="white"/>
<path d="M27.9697 34.3234C27.909 34.3234 27.8482 34.3234 27.7753 34.3234H27.7267H16.8405C16.8162 34.3234 16.7919 34.3234 16.7676 34.3234C16.233 34.3112 15.7349 34.0926 15.3582 33.7038C14.9937 33.315 14.7872 32.8047 14.7993 32.2701C14.8115 31.7355 15.0302 31.2374 15.419 30.8607C15.7956 30.4962 16.2816 30.3018 16.8041 30.3018C16.8162 30.3018 16.8405 30.3018 16.8527 30.3018L18.42 30.3383L18.6387 28.8195C18.6751 28.6009 18.7359 28.3943 18.8209 28.1878C19.1125 27.5195 19.635 27.0092 20.3032 26.7419C20.9714 26.4746 21.7126 26.4868 22.3808 26.7662C23.0004 27.0335 23.4986 27.5195 23.7659 28.1392L24.5921 30.0102L26.3173 28.9046C26.8033 28.5887 27.3744 28.4308 27.9576 28.4308C29.5735 28.4308 30.8978 29.7551 30.8978 31.371C30.8978 32.9869 29.5735 34.3112 27.9576 34.3112L27.9697 34.3234Z" fill="#4981F2"/>
</svg>
