<?xml version="1.0" encoding="utf-8"?>
<!-- Generator: Adobe Illustrator 24.0.2, SVG Export Plug-In . SVG Version: 6.00 Build 0)  -->
<svg version="1.1" id="Layer_1" xmlns="http://www.w3.org/2000/svg" xmlns:xlink="http://www.w3.org/1999/xlink" x="0px" y="0px"
	 viewBox="0 0 100 150" style="enable-background:new 0 0 100 150;" xml:space="preserve">
<style type="text/css">
	.st0{fill:#9BC539;}
	.st1{fill:#101820;}
	.st2{fill:#228848;}
</style>
<path class="st0" d="M91,25C82.5,10.4,66.7,0.5,48.6,0.5S14.7,10.3,6.2,25C2,32.2-0.4,40.6-0.4,49.5v49h49c27,0,49-21.9,49-49
	C97.6,40.6,95.2,32.2,91,25z"/>
<path class="st2" d="M91,73.5C82.5,58.9,66.7,49,48.6,49S14.7,58.8,6.2,73.5C2,80.7-0.4,89.1-0.4,98v49h49c27,0,49-21.9,49-49
	C97.6,89.1,95.2,80.7,91,73.5z"/>
</svg>
