<svg xmlns:dc="http://purl.org/dc/elements/1.1/" xmlns:cc="http://creativecommons.org/ns#"
    xmlns:rdf="http://www.w3.org/1999/02/22-rdf-syntax-ns#" xmlns:svg="http://www.w3.org/2000/svg"
    xmlns="http://www.w3.org/2000/svg"
    xmlns:sodipodi="http://sodipodi.sourceforge.net/DTD/sodipodi-0.dtd"
    xmlns:inkscape="http://www.inkscape.org/namespaces/inkscape" version="1.1" x="0px" y="0px"
    viewBox="0 0 100 125">
    <g transform="translate(0,-952.36218)">
        <path
            style="text-indent:0;text-transform:none;direction:ltr;block-progression:tb;baseline-shift:baseline;color:#fff;enable-background:accumulate;"
            d="m 74.65655,982.36113 c -4.877,0.0837 -9.7957,2.34906 -14.1562,6.71875 l -23.8125,23.71872 c -3.7953,3.8033 -7.7093,5.4991 -11.4063,5.5625 -3.6969,0.063 -7.3105,-1.5081 -10.562399,-4.7188 -6.3484004,-6.2678 -6.2848004,-16.26397 0.031,-22.59367 6.461599,-6.47551 14.276099,-5.89148 19.906199,-0.9375 2.9914,2.84488 5.9667,5.76914 8.9378,8.65625 0.7118,0.86262 2.1908,0.92505 2.9728,0.12549 0.7819,-0.79957 0.6866,-2.27679 -0.1916,-2.96924 -2.9876,-2.91543 -5.9872,-5.83803 -8.9692,-8.75 -6.988,-6.23062 -17.7048,-6.78074 -25.499999,1.03125 -7.8161008,7.83308 -7.8892008,20.52312 0,28.31242 3.867,3.8179 8.560499,5.9275 13.437599,5.8438 6.0528,-0.6536 10.8564,-3.5519 14.156,-6.75 l 23.8125,-23.71872 c 3.7953,-3.80335 7.7093,-5.46782 11.4063,-5.53125 3.6969,-0.0634 7.3105,1.47683 10.5624,4.6875 6.3484,6.26788 6.2848,16.29527 -0.031,22.62497 -6.4694,6.4834 -14.3058,5.9081 -19.9375,0.9375 l 0.031,-0.031 -8.9376,-8.6562 c -0.7495,-0.7434 -2.1122,-0.7293 -2.8462,0.029 -0.7339,0.7587 -0.7028,2.1211 0.065,2.8455 l 8.9062,8.6563 c 0.021,0.021 0.042,0.042 0.063,0.062 6.988,6.2306 17.7048,6.7807 25.5,-1.0313 7.8161,-7.833 7.8892,-20.49184 0,-28.28118 -3.9378,-3.6971 -9.0595,-5.84426 -13.4373,-5.84379 z"
            fill="#fff" fill-opacity="1" stroke="none" marker="none" visibility="visible"
            display="inline" overflow="visible" />
    </g>
</svg>