<svg xmlns="http://www.w3.org/2000/svg" width="150" height="67" viewBox="0 0 150 67">
    <defs>
        <style>
            .a{fill:#1a1818;}.a,.b,.c,.d,.e,.f,.g,.h,.i,.j,.k,.l,.m,.n,.o,.p,.q{fill-rule:evenodd;}.b{fill:#32b3ad;}.c{fill:#29badc;}.d{fill:#0096d8;}.e{fill:#f1a00c;}.f{fill:#183183;}.g{fill:#eb6318;}.h{fill:#dc0b33;}.i{fill:#d60d22;}.j{fill:#9a1979;}.k{fill:#c7006d;}.l{fill:#512981;}.m{fill:#073282;}.n{fill:#00408c;}.o{fill:#3e2b82;}.p{fill:#0d2e77;}.q{fill:#fff;}</style>
    </defs>
    <g transform="translate(-4927.6 -2456.98)">
        <path class="q" d="M4937.3,2488.522h-4.99v-16.479H4927.6v-4.035h14.448v4.038H4937.3Z"
            transform="translate(0 -10.224)" />
        <path class="q"
            d="M5123.938,2483.36a10.679,10.679,0,0,1-.661-21.349q.345-.01.69,0a10.429,10.429,0,0,1,10.719,10.13c0,.146.005.291,0,.437a10.63,10.63,0,0,1-10.477,10.781c-.091,0-.183,0-.273,0m-.091-16.7a6.061,6.061,0,1,0,5.78,6.328c0-.1.006-.192.006-.288a5.816,5.816,0,0,0-5.587-6.036q-.1,0-.2,0"
            transform="translate(-171.817 -4.66)" />
        <path class="q" d="M4937.3,2794.463h-4.99v-16.481H4927.6v-4.038h14.448v4.038H4937.3Z"
            transform="translate(0 -293.856)" />
        <path class="q"
            d="M5148.9,2794.463H5143.9v-20.519h4.993v8.384h6.748v-8.384h4.99v20.519h-4.992v-8.1H5148.9Z"
            transform="translate(-200.533 -293.856)" />
        <path class="q"
            d="M5402.4,2782.172h6.774v4.038h-6.743v4.219h6.743v4.034h-11.735v-20.519h11.735v4.038H5402.4Z"
            transform="translate(-435.588 -293.856)" />
        <path class="q"
            d="M4959.186,3100.5H4954.2v-20.512h4.991l7.483,11.546v-11.546h4.992V3100.5h-4.989l-7.484-11.674Z"
            transform="translate(-24.656 -577.591)" />
        <path class="q"
            d="M5222.857,3088.147h6.775v4.038h-6.746v4.219h6.746v4.036H5217.9v-20.519h11.733v4.032h-6.775Z"
            transform="translate(-269.134 -577.526)" />
        <path class="q"
            d="M5418.152,3079.921h5.238l-5.482,20.518h-5.177l-2.616-12.135-2.622,12.137h-5.146l-5.3-20.517h5.3l2.62,11.648,2.741-11.648h5.022l2.651,11.924Z"
            transform="translate(-435.226 -577.526)" />
        <path class="q" d="M5712.26,3328.112v.246h.733v2.176h.271v-2.176H5714v-.246Z"
            transform="translate(-727.455 -807.623)" />
        <path class="q"
            d="M5742.727,3328.112l-.914,2.042-.914-2.042h-.317v2.422h.267v-1.915h.009l.869,1.915h.177l.869-1.929h.005v1.929h.273v-2.422Z"
            transform="translate(-753.713 -807.623)" />
        <path class="b" d="M5979.874,3158.179l-4.155,10.519-12.761-16.3Z"
            transform="translate(-959.876 -644.719)" />
        <path class="c" d="M6142.145,3231.712l-4.156,10.519,28.215-2.284Z"
            transform="translate(-1122.147 -718.251)" />
        <path class="d" d="M5978.6,2805.928l-15.624,25.26,40.974,14.009Z"
            transform="translate(-959.889 -323.508)" />
        <path class="e" d="M5926.68,2962.691l-8.646,13.978-3.534-11.7Z"
            transform="translate(-914.951 -468.843)" />
        <path class="f" d="M6177.284,2489.381l15.853-25.411-1.652,47.407Z"
            transform="translate(-1158.577 -6.48)" />
        <path class="g" d="M5920.886,2779.431l-7.208-15.555.066,16.892Z"
            transform="translate(-914.19 -284.522)" />
        <path class="h" d="M5925.84,2683.12l-12.245-14.612,26.023-7.562Z"
            transform="translate(-914.112 -189.096)" />
        <path class="i" d="M5918.523,2779.9l-4.872-15.966,12.244,14.618Z"
            transform="translate(-914.164 -284.574)" />
        <path class="j" d="M5923.013,2555.273l-9.474,15.42,16.364-4.751Z"
            transform="translate(-914.06 -91.127)" />
        <path class="k" d="M6043.482,2464.149l14.618-7.169-7.728,17.835Z"
            transform="translate(-1034.53)" />
        <path class="l" d="M6147.747,2472l-1.929-15.024-7.731,17.831Z"
            transform="translate(-1122.238)" />
        <path class="j" d="M6246.023,2472l-1.929-15.024,10.988.508Z"
            transform="translate(-1220.517)" />
        <path class="k" d="M6382.2,2490.193l.913-26.181,6.263,20.4Z"
            transform="translate(-1348.551 -6.519)" />
        <path class="j" d="M6407.616,2479.017l-12.845-15.075,6.259,20.4Z"
            transform="translate(-1360.209 -6.454)" />
        <path class="j" d="M6385.793,2829.349l-12.976-10.039-.743,21.228Z"
            transform="translate(-1339.167 -335.915)" />
        <path class="f" d="M6401.845,2694.454l-19.592-15.154,13.761-11.113Z"
            transform="translate(-1348.603 -195.809)" />
        <path class="l" d="M6574.227,2683.465l8.89-4.435-12.158-10.272Z"
            transform="translate(-1523.551 -196.339)" />
        <path class="m" d="M6615.781,2812.73l8.89-4.435-6.326,15.994Z"
            transform="translate(-1565.106 -325.703)" />
        <path class="n" d="M6691.893,2828.791l.041-20.858-3.606,9.1Z"
            transform="translate(-1632.363 -325.367)" />
        <path class="o" d="M6395.106,2932.084l-2.723,6.9-6.621-5.117-13.716,11.192,26.623-1.212Z"
            transform="translate(-1339.141 -440.467)" />
        <path class="n" d="M6396.858,3099.915l1.837-7.309-26.621,1.212Z"
            transform="translate(-1339.167 -589.287)" />
        <path class="p" d="M6396.858,3113.763l-13.635,11.167-11.149-17.271Z"
            transform="translate(-1339.167 -603.242)" />
    </g>
</svg>